<svg width="24" height="24" viewBox="0 0 24 24" fill="none" xmlns="http://www.w3.org/2000/svg">
<path fill-rule="evenodd" clip-rule="evenodd" d="M17.4648 19L3 19C1.89543 19 1 18.1046 1 17L1 7C1 5.89543 1.89543 5 3 5L17.4648 5C18.1335 5 18.758 5.3342 19.1289 5.8906L22.8321 11.4453C23.056 11.7812 23.056 12.2188 22.8321 12.5547L19.1289 18.1094C18.758 18.6658 18.1335 19 17.4648 19ZM20.7982 12L17.4648 7L3 7L3 17L17.4648 17L20.7982 12ZM16 12C16 11.4477 16.4477 11 17 11C17.5523 11 18 11.4477 18 12C18 12.5523 17.5523 13 17 13C16.4477 13 16 12.5523 16 12Z" fill="white"/>
</svg>
